<svg width="31" height="35" viewBox="0 0 31 35" fill="none" xmlns="http://www.w3.org/2000/svg">
<path d="M20.6667 11.6665C22.7221 11.6665 24.6934 12.5884 26.1468 14.2293C27.6002 15.8703 28.4167 18.0959 28.4167 20.4165V30.6248H23.25V20.4165C23.25 19.643 22.9779 18.9011 22.4934 18.3541C22.0089 17.8071 21.3518 17.4998 20.6667 17.4998C19.9816 17.4998 19.3245 17.8071 18.84 18.3541C18.3555 18.9011 18.0834 19.643 18.0834 20.4165V30.6248H12.9167V20.4165C12.9167 18.0959 13.7332 15.8703 15.1866 14.2293C16.64 12.5884 18.6113 11.6665 20.6667 11.6665Z" stroke="#1E1E1E" stroke-width="4" stroke-linecap="round" stroke-linejoin="round"/>
<path d="M7.75004 13.1248H2.58337V30.6248H7.75004V13.1248Z" stroke="#1E1E1E" stroke-width="4" stroke-linecap="round" stroke-linejoin="round"/>
<path d="M5.16671 8.74984C6.59344 8.74984 7.75004 7.444 7.75004 5.83317C7.75004 4.22234 6.59344 2.9165 5.16671 2.9165C3.73997 2.9165 2.58337 4.22234 2.58337 5.83317C2.58337 7.444 3.73997 8.74984 5.16671 8.74984Z" stroke="#1E1E1E" stroke-width="4" stroke-linecap="round" stroke-linejoin="round"/>
</svg>
