<svg width="32" height="32" viewBox="0 0 32 32" fill="none" xmlns="http://www.w3.org/2000/svg">
<path d="M5.33329 26.6668C4.59996 26.6668 3.96663 26.4113 3.43329 25.9002C2.92218 25.3668 2.66663 24.7335 2.66663 24.0002V8.00016C2.66663 7.26683 2.92218 6.64461 3.43329 6.1335C3.96663 5.60016 4.59996 5.3335 5.33329 5.3335H26.6666C27.4 5.3335 28.0222 5.60016 28.5333 6.1335C29.0666 6.64461 29.3333 7.26683 29.3333 8.00016V24.0002C29.3333 24.7335 29.0666 25.3668 28.5333 25.9002C28.0222 26.4113 27.4 26.6668 26.6666 26.6668H5.33329ZM16 17.3335L26.6666 10.6668V8.00016L16 14.6668L5.33329 8.00016V10.6668L16 17.3335Z" fill="#1D1B20"/>
</svg>
